HIERARCHY
ROOT Hips
{
	OFFSET 0.000000 88.474243 0.000000
	CHANNELS 6 Xposition Yposition Zposition Zrotation Yrotation Xrotation 
	JOINT Hips_Spine
	{
		OFFSET 0.000000 0.000000 0.000000
		CHANNELS 3 Zrotation Yrotation Xrotation
		JOINT Spine
		{
			OFFSET 0.005100 8.711998 -0.691000
			CHANNELS 3 Zrotation Yrotation Xrotation
			JOINT Spine1
			{
				OFFSET -0.009200 8.660301 -1.275000
				CHANNELS 3 Zrotation Yrotation Xrotation
				JOINT Spine2
				{
					OFFSET 0.006300 9.852501 -1.857000
					CHANNELS 3 Zrotation Yrotation Xrotation
					JOINT Spine2_Neck
					{
						OFFSET 0.000000 0.000000 0.000000
						CHANNELS 3 Zrotation Yrotation Xrotation
						JOINT Neck
						{
							OFFSET 0.016300 11.420799 -0.263300
							CHANNELS 3 Zrotation Yrotation Xrotation
							End Site #name: Head
							{
								OFFSET -0.019200 9.262405 2.362500
							}
						}
					}
					JOINT Spine2_LeftShoulder
					{
						OFFSET 0.000000 0.000000 0.000000
						CHANNELS 3 Zrotation Yrotation Xrotation
						JOINT LeftShoulder
						{
							OFFSET 5.616900 6.732201 -0.345700
							CHANNELS 3 Zrotation Yrotation Xrotation
							JOINT LeftArm
							{
								OFFSET 10.664888 -0.183372 -2.440700
								CHANNELS 3 Zrotation Yrotation Xrotation
								JOINT LeftForeArm
								{
									OFFSET 27.459126 0.000000 0.000000
									CHANNELS 3 Zrotation Yrotation Xrotation
									End Site #name: LeftHand
									{
										OFFSET 21.306858 0.000000 0.000000
									}
								}
							}
						}
					}
					JOINT Spine2_RightShoulder
					{
						OFFSET 0.000000 0.000000 0.000000
						CHANNELS 3 Zrotation Yrotation Xrotation
						JOINT RightShoulder
						{
							OFFSET -5.580300 6.737503 -0.344400
							CHANNELS 3 Zrotation Yrotation Xrotation
							JOINT RightArm
							{
								OFFSET -10.679335 -0.188484 -2.383900
								CHANNELS 3 Zrotation Yrotation Xrotation
								JOINT RightForeArm
								{
									OFFSET -27.503529 0.000000 0.000000
									CHANNELS 3 Zrotation Yrotation Xrotation
									End Site #name: RightHand
									{
										OFFSET -21.306808 0.000000 0.000000
									}
								}
							}
						}
					}
				}
			}
		}
	}
	JOINT Hips_LeftUpLeg
	{
		OFFSET 0.000000 0.000000 0.000000
		CHANNELS 3 Zrotation Yrotation Xrotation
		JOINT LeftUpLeg
		{
			OFFSET 6.857700 -6.739601 0.312100
			CHANNELS 3 Zrotation Yrotation Xrotation
			JOINT LeftLeg
			{
				OFFSET -0.367590 -34.731552 -4.572400
				CHANNELS 3 Zrotation Yrotation Xrotation
				End Site #name: LeftFoot
				{
					OFFSET 0.367590 -34.656704 -6.067400
				}
			}
		}
	}
	JOINT Hips_RightUpLeg
	{
		OFFSET 0.000000 0.000000 0.000000
		CHANNELS 3 Zrotation Yrotation Xrotation
		JOINT RightUpLeg
		{
			OFFSET -6.876100 -6.733299 0.301000
			CHANNELS 3 Zrotation Yrotation Xrotation
			JOINT RightLeg
			{
				OFFSET 0.347353 -34.795158 -4.515900
				CHANNELS 3 Zrotation Yrotation Xrotation
				End Site #name: RightFoot
				{
					OFFSET -0.347353 -34.589367 -6.070300
				}
			}
		}
	}
}
MOTION
Frames: 13
Frame Time: 0.041667
-52.436451 87.146973 17.260780 9.985094 64.693443 -21.000107 0.000000 -0.000000 0.000000 -0.186701 8.501529 -29.201534 -0.832618 -31.098066 -9.480251 0.000000 0.000000 0.000000 -7.745868 -14.198644 -5.111002 -76.307755 10.999450 -19.419257 -12.471907 -3.785149 -2.330824 -92.831234 -16.085999 3.211043 -165.303348 51.590855 -127.758531 179.203697 -27.162514 176.223963 -16.581499 -13.924251 9.601870 66.277663 -6.443874 -14.126165 46.497539 42.987624 -131.173684 -179.698828 18.856865 179.280168 -0.000000 -0.000000 0.000000 45.187667 -15.074240 29.522864 66.179360 20.248378 124.836338 -0.000000 0.000000 0.000000 90.552980 16.100910 4.310218 -23.636569 22.998509 -59.383452 
-53.659176 89.868401 17.897541 9.732816 64.992054 -21.209969 0.000000 -0.000000 0.000000 -0.163464 8.394330 -28.730200 -0.673297 -31.690453 -10.109019 0.000000 0.000000 0.000000 -7.870471 -14.485028 -5.309172 -76.524141 11.104344 -19.619547 -12.880532 -3.732589 -2.493429 -92.731633 -16.248543 3.323479 -165.266090 51.729046 -127.635124 179.237558 -26.962721 176.231239 -16.940565 -14.021118 10.017944 67.353314 -7.278938 -15.200807 47.056575 42.876724 -130.688466 -179.651362 19.445548 179.188650 -0.000000 -0.000000 0.000000 45.811923 -15.354195 29.420110 67.343744 19.938773 125.596261 -0.000000 0.000000 0.000000 90.251283 16.511870 3.835393 -23.466647 23.033974 -59.123674 
-54.936466 92.611061 18.563446 9.466849 65.509277 -21.405080 0.000000 -0.000000 0.000000 -0.102199 8.258154 -28.115042 -0.513884 -32.316779 -10.733327 0.000000 0.000000 0.000000 -7.976270 -14.810752 -5.563453 -76.667417 11.064324 -19.800873 -13.313729 -3.661957 -2.639288 -92.604117 -16.385317 3.388215 -165.275223 51.858472 -127.539236 179.257641 -26.765034 176.237606 -17.294330 -14.141944 10.455029 68.549046 -8.045260 -16.136688 47.535491 42.895627 -130.257364 -179.579085 19.958095 179.087745 -0.000000 -0.000000 0.000000 46.520287 -15.716465 29.009548 68.474167 19.565056 126.371930 -0.000000 0.000000 0.000000 90.001153 16.996107 3.194654 -23.242613 23.034695 -58.722167 
-56.270172 95.366776 19.250385 9.186898 66.226482 -21.560529 0.000000 -0.000000 0.000000 -0.061440 8.044435 -27.378058 -0.359642 -32.975809 -11.336247 0.000000 0.000000 0.000000 -8.068938 -15.185516 -5.872334 -76.772906 10.887316 -19.995348 -13.771449 -3.572889 -2.750067 -92.417517 -16.492350 3.388672 -165.391380 51.976425 -127.492160 179.266804 -26.523486 176.252045 -17.664094 -14.295352 10.908582 69.823499 -8.623530 -16.955573 47.976113 43.005788 -129.869024 -179.485812 20.382975 178.976805 -0.000000 -0.000000 0.000000 47.265154 -16.141086 28.350911 69.434082 19.204035 127.000315 -0.000000 0.000000 0.000000 89.876344 17.530676 2.407681 -22.956507 23.043235 -58.197828 
-57.659126 98.127876 19.950228 8.899856 67.094839 -21.679682 0.000000 -0.000000 0.000000 -0.060614 7.767309 -26.570930 -0.227513 -33.640762 -11.855136 0.000000 0.000000 0.000000 -8.152536 -15.603806 -6.232416 -76.780279 10.574791 -20.208083 -14.254662 -3.475840 -2.825265 -92.163473 -16.594930 3.341348 -165.540461 52.119764 -127.436813 179.268347 -26.294463 176.267785 -18.029285 -14.476766 11.358548 71.215901 -9.003652 -17.671215 48.335673 43.258872 -129.575603 -179.384871 20.675019 178.855046 -0.000000 -0.000000 0.000000 48.051900 -16.588435 27.504553 70.158718 18.813768 127.543884 -0.000000 -0.000000 0.000000 89.780268 18.384135 1.248866 -22.547364 23.070451 -57.439277 
-59.090450 100.895111 20.654860 8.612572 68.144284 -21.727808 0.000000 -0.000000 0.000000 -0.090817 7.482681 -25.744369 -0.139383 -34.282132 -12.462841 0.000000 0.000000 0.000000 -8.217288 -16.043457 -6.589240 -76.724878 10.145575 -20.448138 -14.748903 -3.352390 -2.880204 -91.806360 -16.670109 3.230965 -165.738173 52.282267 -127.393749 179.260618 -26.053686 176.288011 -18.392606 -14.664191 11.793033 72.723714 -9.209647 -18.294487 48.619986 43.653051 -129.360501 -179.274006 20.816316 178.732081 -0.000000 -0.000000 0.000000 48.811082 -17.113821 26.558378 70.584451 18.553070 127.884285 -0.000000 -0.000000 0.000000 89.664236 19.427900 -0.092722 -22.034401 23.157040 -56.682289 
-60.551640 103.673576 21.354780 8.316262 69.367299 -21.715284 0.000000 -0.000000 0.000000 -0.123487 7.178466 -24.961567 -0.077511 -34.905422 -12.975451 0.000000 0.000000 0.000000 -8.244121 -16.499714 -6.945405 -76.604786 9.632844 -20.751569 -15.230593 -3.226305 -2.900947 -91.360224 -16.712677 3.054025 -166.016191 52.449094 -127.365930 179.250472 -25.877454 176.317682 -18.727550 -14.836235 12.180233 74.231854 -9.245502 -18.766083 48.789969 44.178195 -129.258770 -179.151474 20.889270 178.613941 -0.000000 -0.000000 0.000000 49.561600 -17.782024 25.345468 70.657062 18.488562 128.025292 -0.000000 -0.000000 0.000000 89.487633 20.523753 -1.255329 -21.480064 23.223733 -56.117371 
-62.031830 106.455521 22.040609 8.054885 70.677772 -21.638566 0.000000 -0.000000 0.000000 -0.210307 6.860843 -24.162327 -0.041824 -35.472813 -13.329997 0.000000 0.000000 0.000000 -8.229119 -16.932448 -7.280196 -76.396202 9.045159 -21.177426 -15.663111 -3.078460 -2.878011 -90.813059 -16.701387 2.784270 -166.279283 52.599832 -127.318458 179.227996 -25.752625 176.350560 -19.031448 -14.980114 12.528552 75.666957 -9.092012 -19.057065 48.927708 44.754211 -129.224092 -179.019091 20.914506 178.489651 -0.000000 -0.000000 0.000000 50.270921 -18.441861 24.064697 70.387812 18.487534 128.017840 -0.000000 -0.000000 0.000000 89.404791 21.695621 -2.112871 -20.955955 23.270753 -55.923989 
-63.519650 109.240410 22.699322 7.847031 72.081360 -21.439022 0.000000 -0.000000 0.000000 -0.251943 6.624253 -23.639885 -0.022323 -35.946808 -13.524242 0.000000 0.000000 0.000000 -8.180178 -17.329078 -7.581657 -76.036472 8.373480 -21.674459 -16.031037 -2.936578 -2.782268 -90.139285 -16.654821 2.431410 -166.525172 52.719027 -127.245332 179.183644 -25.641691 176.395662 -19.257645 -15.079485 12.807396 77.032570 -8.811719 -19.216452 48.990493 45.370260 -129.290989 -178.887440 21.102425 178.355746 -0.000000 -0.000000 0.000000 50.800411 -19.067523 22.700149 69.853420 18.624328 127.751307 -0.000000 -0.000000 0.000000 89.436232 22.875093 -2.485501 -20.391148 23.315128 -56.047162 
-65.012238 112.031158 23.337524 7.732210 73.503619 -21.035413 0.000000 -0.000000 0.000000 -0.082325 6.536963 -23.372508 -0.008933 -36.328700 -13.544857 0.000000 0.000000 0.000000 -8.103641 -17.684966 -7.859539 -75.527765 7.597833 -22.179037 -16.304992 -2.805360 -2.588951 -89.396912 -16.559193 2.050505 -166.777277 52.802397 -127.131563 179.132230 -25.677148 176.432174 -19.407488 -15.131285 13.018192 78.241880 -8.403474 -19.219760 49.030589 45.932765 -129.423676 -178.773285 21.485676 178.202185 -0.000000 -0.000000 0.000000 51.121161 -19.673787 21.498257 69.101252 18.880970 127.233619 -0.000000 -0.000000 0.000000 89.489776 24.219942 -2.847632 -19.948551 23.405317 -56.262112 
-66.498627 114.842651 23.964111 7.626363 75.039137 -20.524547 0.000000 -0.000000 0.000000 0.164143 6.476083 -23.329890 0.000292 -36.600595 -13.445106 0.000000 0.000000 0.000000 -7.995415 -18.003209 -8.121373 -74.924877 6.780510 -22.744873 -16.475534 -2.681770 -2.271573 -88.538283 -16.416811 1.622102 -166.975197 52.919578 -126.940655 179.084317 -25.849782 176.466668 -19.466643 -15.118568 13.169658 79.421950 -7.918632 -19.108337 49.034095 46.407082 -129.641609 -178.688460 21.979986 178.040810 -0.000000 -0.000000 0.000000 51.470686 -20.181751 20.343849 68.140324 19.218093 126.471979 -0.000000 -0.000000 0.000000 89.554309 25.881688 -3.433295 -19.698686 23.505071 -56.345184 
-67.972702 117.689751 24.581656 7.598261 76.694495 -19.874018 0.000000 -0.000000 0.000000 0.497514 6.488853 -23.364998 0.021151 -36.728374 -13.237191 0.000000 0.000000 0.000000 -7.895291 -18.207426 -8.358802 -74.418562 5.987950 -23.220241 -16.554595 -2.554614 -1.859859 -87.551998 -16.225561 1.159995 -167.147964 53.054629 -126.686591 179.042099 -26.130422 176.500075 -19.444131 -15.020880 13.281970 80.567316 -7.362197 -18.906836 49.058336 46.872647 -129.822258 -178.620722 22.513196 177.870995 -0.000000 -0.000000 0.000000 52.108661 -20.308207 19.246195 66.970677 19.582745 125.496118 -0.000000 -0.000000 0.000000 89.752172 27.974995 -4.248152 -19.556503 23.756413 -56.151013 
-69.426460 120.576530 25.196146 7.647319 78.433566 -19.116824 0.000000 -0.000000 0.000000 0.643498 6.514702 -23.448924 0.067760 -36.764042 -13.048658 0.000000 0.000000 0.000000 -7.825697 -18.388541 -8.582147 -74.065864 5.163538 -23.563033 -16.588812 -2.423993 -1.363054 -86.471487 -15.994136 0.697638 -167.256175 53.204512 -126.342928 179.001783 -26.594016 176.532687 -19.365347 -14.853600 13.346783 81.668656 -6.801062 -18.676667 49.110858 47.355879 -129.919148 -178.568306 23.091065 177.687059 -0.000000 -0.000000 0.000000 52.873791 -20.326647 18.073735 65.602456 19.998508 124.359719 -0.000000 -0.000000 0.000000 90.196928 30.423707 -5.217209 -19.426571 24.144375 -55.730777 
